#N canvas 108 311 321 522 12;
#X obj -14 -51 cnv 15 300 500 empty empty empty 20 12 0 14 -33289 -66577
0;
#X obj 9 19 cnv 15 250 100 empty empty empty 20 12 0 14 -241291 -66577
0;
#X obj 36 53 hsl 195 15 0 1 0 0 grenze-links empty empty -2 -6 0 8
-262144 -1 -1 0 1;
#X obj 36 82 hsl 195 15 0 1 0 0 grenze-rechts empty empty -2 -6 0 8
-262144 -1 -1 19400 1;
#X obj 9 120 cnv 15 250 200 empty empty empty 20 12 0 14 -233017 -66577
0;
#N canvas 0 50 450 300 (subpatch) 0;
#X array array1 2.36845e+006 float 2;
#X coords 0 1 2.36845e+006 -1 200 140 1;
#X restore 32 136 graph;
#X obj 35 281 hsl 195 15 0 1 0 0 empty pos empty -2 -6 0 8 -262144
-1 -1 6612 1;
#X obj 9 321 cnv 15 250 100 empty empty empty 20 12 0 14 -260818 -66577
0;
#X obj 33 343 hsl 128 15 0 2 0 0 geschw playback empty -2 -6 0 8 -262144
-1 -1 6350 0;
#X obj 32 398 hsl 128 15 0 2 0 0 amp empty empty -2 -6 0 8 -262144
-1 -1 2700 1;
#X obj 9 -12 cnv 15 250 30 empty empty empty 20 12 0 14 -262144 -66577
0;
#X obj 23 -4 bng 22 250 50 0 load empty empty 0 -6 0 8 -258699 -1 -1
;
#X obj 49 -46 cnv 15 100 20 empty empty Sample-Player 20 12 1 14 -33289
-262144 0;
#X obj 183 426 cnv 15 100 20 empty empty empty 20 12 0 14 -233017 -66577
0;
#N canvas -8 -8 1680 968 subpatch 0;
#X obj 211 102 soundfiler;
#X msg 211 60 read -resize \$1 array1;
#X obj 211 42 openpanel;
#X obj 45 788 phasor~;
#X floatatom 45 707 5 0 0 0 - - -, f 5;
#X obj 45 914 tabread4~ array1;
#X obj 44 1025 *~;
#X floatatom 305 933 5 0 0 0 - - -, f 5;
#X obj 305 1003 line~;
#X msg 305 961 \$1 20;
#X obj 44 1067 hip~ 5;
#X obj 44 1109 dac~;
#X obj 45 746 *;
#X obj 45 292 expr 1 / $f1;
#X obj 309 227 -;
#X obj 364 188 t f b;
#X floatatom 309 188 5 0 0 0 - - -, f 5;
#X obj 85 188 expr 44100 / $f1;
#X obj 45 334 *;
#X obj 45 830 +~;
#X obj 45 787 *~;
#X obj 275 140 r grenze-rechts;
#X obj 450 140 r grenze-links;
#X obj 199 941 s pos;
#X obj 211 18 r load;
#X obj 81 343 r geschw;
#X obj 305 897 r amp;
#X text 186 770 www.pd-tutorial.com;
#X text 186 731 Johannes Kreidler;
#X obj 81 677 t b f;
#X obj 45 872 *~;
#X msg 756 813 connect localhost 12000;
#X floatatom 887 894 5 0 0 0 - - -, f 5;
#X obj 756 1005 udpsend;
#X obj 887 975 packOSC;
#X msg 786 860 disconnect;
#X obj 756 752 loadbang;
#X floatatom 342 292 5 0 0 0 - - -, f 5;
#X floatatom 417 231 5 0 0 0 - - -, f 5;
#X obj 199 899 unsig~ 20;
#X msg 563 60 \; playback 1 \;;
#X obj 563 18 loadbang;
#X obj 191 292 r reverse;
#X floatatom 180 650 5 0 0 0 - - -, f 5;
#X obj 225 373 tgl 15 0 empty empty empty 17 7 0 10 -262144 -1 -1 0
1;
#X obj 92 619 *;
#X obj 81 677 t b f;
#X obj 342 373 tgl 15 0 empty empty empty 17 7 0 10 -262144 -1 -1 1
1;
#X obj 342 331 == 0;
#X floatatom 283 490 5 0 0 0 - - -, f 5;
#X obj 193 448 spigot;
#X obj 283 448 spigot;
#X obj 283 529 bng 15 250 50 0 empty empty empty 17 7 0 10 -262144
-1 -1;
#X msg 193 406 -1;
#X msg 283 406 1;
#X obj 454 18 r reset;
#X msg 474 462 list array1 1024 0 44100 0;
#X obj 474 504 sigmund~ -t -npeak 5 -maxfreq 5000 peaks;
#X floatatom 413 601 5 0 0 0 - - -, f 5;
#X floatatom 484 601 5 0 0 0 - - -, f 5;
#X floatatom 550 601 5 0 0 0 - - -, f 5;
#X floatatom 618 601 5 0 0 0 - - -, f 5;
#X floatatom 685 601 5 0 0 0 - - -, f 5;
#X floatatom 748 601 5 0 0 0 - - -, f 5;
#X obj 474 546 route 0 1 2 3 4 5;
#X msg 887 933 send /jitter \$1;
#X msg 1038 815 connect localhost 12000;
#X floatatom 1169 896 5 0 0 0 - - -, f 5;
#X obj 1038 1007 udpsend;
#X obj 1169 977 packOSC;
#X msg 1068 862 disconnect;
#X obj 1038 754 loadbang;
#X msg 1169 935 send /desaturate \$1;
#X msg 1358 819 connect localhost 12000;
#X floatatom 1489 900 5 0 0 0 - - -, f 5;
#X obj 1358 1011 udpsend;
#X obj 1489 981 packOSC;
#X msg 1388 866 disconnect;
#X obj 1358 758 loadbang;
#X msg 1489 939 send /static \$1;
#X obj 878 67 unpackOSC;
#X obj 879 257 spigot;
#X obj 918 237 tgl 15 0 empty empty enable_print: -77 8 0 10 -4034
-1 -1 0 1;
#X obj 879 282 print received;
#X obj 878 19 udpreceive 9001;
#X floatatom 1005 147 5 0 0 0 - - -, f 5;
#X obj 1005 102 routeOSC /recordAudio;
#X obj 1077 145 print recording;
#N canvas 202 66 986 627 filtering 0;
#X obj 159 59 inlet~;
#X obj 44 40 inlet~;
#X obj 370 59 inlet~;
#X obj 270 59 inlet~;
#X obj 601 57 inlet~;
#X obj 484 59 inlet~;
#X obj 847 56 inlet~;
#X obj 728 56 inlet~;
#X obj 1070 56 inlet~;
#X obj 957 55 inlet~;
#X obj 44 74 env~ 1024;
#X obj 44 109 dbtorms;
#X floatatom 44 146 5 0 0 0 - - -, f 5;
#X obj 44 174 f;
#X floatatom 44 236 5 0 0 0 - - -, f 5;
#X obj 44 208 / 3;
#X obj 159 455 env~ 1024;
#X obj 159 493 dbtorms;
#X floatatom 159 530 5 0 0 0 - - -, f 5;
#X obj 269 419 env~ 1024;
#X obj 269 457 dbtorms;
#X floatatom 269 494 5 0 0 0 - - -, f 5;
#X obj 371 382 env~ 1024;
#X obj 371 420 dbtorms;
#X floatatom 371 457 5 0 0 0 - - -, f 5;
#X obj 485 349 env~ 1024;
#X obj 485 387 dbtorms;
#X floatatom 485 424 5 0 0 0 - - -, f 5;
#X obj 600 314 env~ 1024;
#X obj 600 352 dbtorms;
#X floatatom 600 389 5 0 0 0 - - -, f 5;
#X obj 728 276 env~ 1024;
#X obj 728 314 dbtorms;
#X floatatom 728 351 5 0 0 0 - - -, f 5;
#X obj 847 239 env~ 1024;
#X obj 847 277 dbtorms;
#X floatatom 847 314 5 0 0 0 - - -, f 5;
#X obj 958 201 env~ 1024;
#X obj 958 239 dbtorms;
#X floatatom 958 283 5 0 0 0 - - -, f 5;
#X obj 1071 168 env~ 1024;
#X obj 1071 206 dbtorms;
#X floatatom 1071 243 5 0 0 0 - - -, f 5;
#X obj 609 687 outlet;
#X obj 248 562 max;
#X floatatom 248 596 5 0 0 0 - - -, f 5;
#X obj 248 628 >=;
#X floatatom 248 661 5 0 0 0 - - -, f 5;
#X obj 248 693 outlet, f 8;
#X obj 609 561 max;
#X floatatom 609 594 5 0 0 0 - - -, f 5;
#X obj 609 626 >=;
#X floatatom 609 659 5 0 0 0 - - -, f 5;
#X obj 646 503 max;
#X obj 951 685 outlet;
#X obj 951 559 max;
#X floatatom 951 592 5 0 0 0 - - -, f 5;
#X obj 951 624 >=;
#X floatatom 951 657 5 0 0 0 - - -, f 5;
#X obj 988 501 max;
#X obj 269 384 bp~ 125 30;
#X obj 371 347 bp~ 250 30;
#X obj 600 279 bp~ 1000 25;
#X obj 728 241 bp~ 2000 25;
#X obj 847 204 bp~ 4000 200;
#X obj 958 166 bp~ 8000 200;
#X obj 1071 133 bp~ 16000 200;
#X obj 159 420 bp~ 63 20;
#X obj 485 314 bp~ 500 25;
#X floatatom 228 99 5 0 0 0 - - -, f 5;
#X obj 228 207 + 20;
#X obj 346 206 + 30;
#X text 184 78 Q Control;
#X obj 448 202 + 30;
#X obj 562 204 + 25;
#X obj 685 203 + 25;
#X obj 813 179 + 25;
#X obj 1025 113 + 200;
#X obj 1172 102 + 200;
#X obj 915 140 + 200;
#X connect 0 0 67 0;
#X connect 1 0 10 0;
#X connect 2 0 61 0;
#X connect 3 0 60 0;
#X connect 4 0 62 0;
#X connect 5 0 68 0;
#X connect 6 0 64 0;
#X connect 7 0 63 0;
#X connect 8 0 66 0;
#X connect 9 0 65 0;
#X connect 10 0 11 0;
#X connect 11 0 12 0;
#X connect 12 0 13 0;
#X connect 13 0 15 0;
#X connect 14 0 46 1;
#X connect 14 0 51 1;
#X connect 14 0 57 1;
#X connect 15 0 14 0;
#X connect 16 0 17 0;
#X connect 17 0 18 0;
#X connect 18 0 44 0;
#X connect 19 0 20 0;
#X connect 20 0 21 0;
#X connect 21 0 44 1;
#X connect 22 0 23 0;
#X connect 23 0 24 0;
#X connect 25 0 26 0;
#X connect 26 0 27 0;
#X connect 27 0 49 0;
#X connect 28 0 29 0;
#X connect 29 0 30 0;
#X connect 30 0 53 0;
#X connect 31 0 32 0;
#X connect 32 0 33 0;
#X connect 33 0 53 1;
#X connect 34 0 35 0;
#X connect 35 0 36 0;
#X connect 36 0 55 0;
#X connect 37 0 38 0;
#X connect 38 0 39 0;
#X connect 39 0 59 0;
#X connect 40 0 41 0;
#X connect 41 0 42 0;
#X connect 42 0 59 1;
#X connect 44 0 45 0;
#X connect 45 0 46 0;
#X connect 46 0 47 0;
#X connect 47 0 48 0;
#X connect 49 0 50 0;
#X connect 50 0 51 0;
#X connect 51 0 52 0;
#X connect 52 0 43 0;
#X connect 53 0 49 1;
#X connect 55 0 56 0;
#X connect 56 0 57 0;
#X connect 57 0 58 0;
#X connect 58 0 54 0;
#X connect 59 0 55 1;
#X connect 60 0 19 0;
#X connect 61 0 22 0;
#X connect 62 0 28 0;
#X connect 63 0 31 0;
#X connect 64 0 34 0;
#X connect 65 0 37 0;
#X connect 66 0 40 0;
#X connect 67 0 16 0;
#X connect 68 0 25 0;
#X connect 69 0 70 0;
#X connect 69 0 71 0;
#X connect 69 0 73 0;
#X connect 69 0 74 0;
#X connect 69 0 75 0;
#X connect 69 0 76 0;
#X connect 69 0 79 0;
#X connect 69 0 77 0;
#X connect 69 0 78 0;
#X connect 70 0 67 2;
#X connect 71 0 60 2;
#X connect 73 0 61 2;
#X connect 74 0 68 2;
#X connect 75 0 62 2;
#X connect 76 0 63 2;
#X connect 77 0 65 2;
#X connect 78 0 66 2;
#X connect 79 0 64 2;
#X restore 404 1002 pd filtering;
#X connect 0 0 17 0;
#X connect 0 0 30 1;
#X connect 0 0 56 0;
#X connect 1 0 0 0;
#X connect 2 0 1 0;
#X connect 3 0 20 0;
#X connect 4 0 12 0;
#X connect 5 0 6 0;
#X connect 5 0 88 0;
#X connect 5 0 88 1;
#X connect 5 0 88 2;
#X connect 5 0 88 3;
#X connect 5 0 88 4;
#X connect 5 0 88 5;
#X connect 5 0 88 6;
#X connect 5 0 88 7;
#X connect 5 0 88 8;
#X connect 5 0 88 9;
#X connect 6 0 10 0;
#X connect 7 0 9 0;
#X connect 8 0 6 1;
#X connect 9 0 8 0;
#X connect 10 0 11 0;
#X connect 10 0 11 1;
#X connect 12 0 3 0;
#X connect 13 0 18 0;
#X connect 14 0 13 0;
#X connect 14 0 20 1;
#X connect 14 0 37 0;
#X connect 15 0 14 1;
#X connect 15 0 19 1;
#X connect 15 1 16 0;
#X connect 16 0 14 0;
#X connect 17 0 18 1;
#X connect 18 0 4 0;
#X connect 19 0 30 0;
#X connect 19 0 39 0;
#X connect 20 0 19 0;
#X connect 21 0 16 0;
#X connect 22 0 15 0;
#X connect 22 0 38 0;
#X connect 24 0 2 0;
#X connect 25 0 45 0;
#X connect 26 0 7 0;
#X connect 29 0 4 0;
#X connect 29 1 12 1;
#X connect 30 0 5 0;
#X connect 31 0 33 0;
#X connect 32 0 65 0;
#X connect 34 0 33 0;
#X connect 35 0 33 0;
#X connect 36 0 31 0;
#X connect 39 0 23 0;
#X connect 41 0 40 0;
#X connect 42 0 44 0;
#X connect 42 0 48 0;
#X connect 44 0 50 1;
#X connect 44 0 53 0;
#X connect 45 0 43 0;
#X connect 45 0 29 0;
#X connect 47 0 51 1;
#X connect 47 0 54 0;
#X connect 48 0 47 0;
#X connect 49 0 45 1;
#X connect 49 0 52 0;
#X connect 50 0 49 0;
#X connect 51 0 49 0;
#X connect 52 0 45 0;
#X connect 53 0 50 0;
#X connect 54 0 51 0;
#X connect 55 0 40 0;
#X connect 56 0 57 0;
#X connect 57 0 64 0;
#X connect 64 0 58 0;
#X connect 64 1 59 0;
#X connect 64 2 60 0;
#X connect 64 3 61 0;
#X connect 64 4 62 0;
#X connect 64 5 63 0;
#X connect 65 0 34 0;
#X connect 66 0 68 0;
#X connect 67 0 72 0;
#X connect 69 0 68 0;
#X connect 70 0 68 0;
#X connect 71 0 66 0;
#X connect 72 0 69 0;
#X connect 73 0 75 0;
#X connect 74 0 79 0;
#X connect 76 0 75 0;
#X connect 77 0 75 0;
#X connect 78 0 73 0;
#X connect 79 0 76 0;
#X connect 80 0 81 0;
#X connect 80 0 86 0;
#X connect 81 0 83 0;
#X connect 82 0 81 1;
#X connect 84 0 80 0;
#X connect 86 0 85 0;
#X connect 86 0 87 0;
#X connect 88 0 32 0;
#X connect 88 1 67 0;
#X connect 88 2 74 0;
#X restore 187 426 pd subpatch;
#X text 48 -7 first load sound file;
#X text 31 33 left limit;
#X text 145 100 right limit;
#X text 29 322 playback speed;
#X text 27 377 volume;
#X obj 208 342 tgl 15 0 reverse empty empty 17 7 0 10 -262144 -1 -1
0 1;
#X text 187 322 reverse;
#X text 65 -53 comment;
#X text 28 359 0 1 2;
#X obj 104 362 bng 15 250 50 0 reset empty empty 17 7 0 10 -262144
-1 -1;
