#N canvas 108 311 321 522 12;
#X obj -14 -51 cnv 15 300 500 empty empty empty 20 12 0 14 -33289 -66577
0;
#X obj 9 19 cnv 15 250 100 empty empty empty 20 12 0 14 -241291 -66577
0;
#X obj 36 53 hsl 195 15 0 1 0 0 grenze-links empty empty -2 -6 0 8
-262144 -1 -1 0 1;
#X obj 36 82 hsl 195 15 0 1 0 0 grenze-rechts empty empty -2 -6 0 8
-262144 -1 -1 0 1;
#X obj 9 120 cnv 15 250 200 empty empty empty 20 12 0 14 -233017 -66577
0;
#N canvas 0 50 450 300 (subpatch) 0;
#X array array1 4e+006 float 2;
#X coords 0 1 4e+006 -1 200 140 1;
#X restore 32 136 graph;
#X obj 35 281 hsl 195 15 0 1 0 0 empty pos empty -2 -6 0 8 -262144
-1 -1 0 1;
#X obj 9 321 cnv 15 250 100 empty empty empty 20 12 0 14 -260818 -66577
0;
#X obj 33 343 hsl 128 15 0 2 0 0 geschw playback empty -2 -6 0 8 -262144
-1 -1 6350 0;
#X obj 32 398 hsl 128 15 0 2 0 0 amp empty empty -2 -6 0 8 -262144
-1 -1 0 1;
#X obj 9 -12 cnv 15 250 30 empty empty empty 20 12 0 14 -262144 -66577
0;
#X obj 23 -4 bng 22 250 50 0 load empty empty 0 -6 0 8 -258699 -1 -1
;
#X obj 49 -46 cnv 15 100 20 empty empty Sample-Player 20 12 1 14 -33289
-262144 0;
#X obj 183 426 cnv 15 100 20 empty empty empty 20 12 0 14 -233017 -66577
0;
#N canvas 0 141 1920 1038 subpatch 0;
#X obj 211 102 soundfiler;
#X msg 211 60 read -resize \$1 array1;
#X obj 211 42 openpanel;
#X obj 45 788 phasor~;
#X floatatom 45 707 5 0 0 0 - - -, f 5;
#X obj 45 914 tabread4~ array1;
#X obj 44 1025 *~;
#X floatatom 305 919 5 0 0 0 - - -, f 5;
#X obj 305 1003 line~;
#X msg 305 961 \$1 20;
#X obj 44 1067 hip~ 5;
#X obj 44 1109 dac~;
#X obj 45 746 *;
#X obj 45 292 expr 1 / $f1;
#X obj 309 227 -;
#X obj 364 188 t f b;
#X floatatom 309 188 5 0 0 0 - - -, f 5;
#X obj 85 188 expr 44100 / $f1;
#X obj 45 334 *;
#X obj 45 830 +~;
#X obj 45 787 *~;
#X obj 275 140 r grenze-rechts;
#X obj 450 140 r grenze-links;
#X obj 199 941 s pos;
#X obj 211 18 r load;
#X obj 81 343 r geschw;
#X obj 305 919 r amp;
#X text 186 770 www.pd-tutorial.com;
#X text 186 731 Johannes Kreidler;
#X obj 81 677 t b f;
#X obj 45 872 *~;
#X msg 614 485 connect localhost 12000;
#X floatatom 745 566 5 0 0 0 - - -, f 5;
#X obj 614 677 udpsend;
#X obj 745 647 packOSC;
#X msg 745 524 disconnect;
#X obj 614 443 loadbang;
#X msg 745 605 send /test_1 \$1;
#X msg 967 485 connect localhost 12000;
#X floatatom 1098 566 5 0 0 0 - - -, f 5;
#X obj 967 677 udpsend;
#X obj 1098 647 packOSC;
#X msg 997 532 disconnect;
#X obj 967 424 loadbang;
#X floatatom 342 292 5 0 0 0 - - -, f 5;
#X floatatom 417 231 5 0 0 0 - - -, f 5;
#X obj 199 899 unsig~ 20;
#X msg 563 60 \; playback 1 \;;
#X obj 563 18 loadbang;
#X obj 191 292 r reverse;
#X floatatom 180 650 5 0 0 0 - - -, f 5;
#X obj 225 373 tgl 15 0 empty empty empty 17 7 0 10 -262144 -1 -1 0
1;
#X obj 92 619 *;
#X obj 81 677 t b f;
#X obj 342 373 tgl 15 0 empty empty empty 17 7 0 10 -262144 -1 -1 0
1;
#X obj 342 331 == 0;
#X floatatom 283 490 5 0 0 0 - - -, f 5;
#X obj 193 448 spigot;
#X obj 283 448 spigot;
#X obj 283 529 bng 15 250 50 0 empty empty empty 17 7 0 10 -262144
-1 -1;
#X obj 917 18 cnv 15 100 60 empty empty empty 20 12 0 14 -233017 -66577
0;
#X obj 980 42 cnv 15 100 60 empty empty empty 20 12 0 14 -233017 -66577
0;
#X msg 193 406 -1;
#X msg 283 406 1;
#X obj 454 18 r reset;
#X floatatom 730 188 5 0 0 0 - - -, f 5;
#X floatatom 796 188 5 0 0 0 - - -, f 5;
#X obj 787 60 route 0 1 2 3 4 5 6 7 8 9;
#X floatatom 1007 188 5 0 0 0 - - -, f 5;
#X floatatom 1073 188 5 0 0 0 - - -, f 5;
#X obj 1064 115 unpack f f;
#X obj 787 102 unpack f f;
#X obj 787 18 sigmund~ -npeak 10 -maxfreq 5000 peaks;
#X obj 822 263 < 100;
#X floatatom 822 324 5 0 0 0 - - -, f 5;
#X floatatom 996 292 5 0 0 0 - - -, f 5;
#X obj 506 1018 env~ 1024;
#X floatatom 506 1100 5 0 0 0 - - -, f 5;
#X obj 1007 227 > 1000;
#X floatatom 506 1181 5 0 0 0 - - -, f 5;
#X obj 765 1023 env~ 1024;
#X floatatom 765 1107 5 0 0 0 - - -, f 5;
#X floatatom 765 1188 5 0 0 0 - - -, f 5;
#X obj 922 1023 env~ 1024;
#X floatatom 922 1107 5 0 0 0 - - -, f 5;
#X floatatom 922 1188 5 0 0 0 - - -, f 5;
#X obj 1062 1023 env~ 1024;
#X floatatom 1062 1108 5 0 0 0 - - -, f 5;
#X floatatom 1062 1189 5 0 0 0 - - -, f 5;
#X msg 1079 732 list array1 1024 0 44100 0;
#X obj 1079 774 sigmund~ -t -npeak 5 -maxfreq 5000 peaks;
#X floatatom 1018 871 5 0 0 0 - - -, f 5;
#X floatatom 1089 871 5 0 0 0 - - -, f 5;
#X floatatom 1155 871 5 0 0 0 - - -, f 5;
#X floatatom 1223 871 5 0 0 0 - - -, f 5;
#X floatatom 1290 871 5 0 0 0 - - -, f 5;
#X floatatom 1353 871 5 0 0 0 - - -, f 5;
#X obj 765 981 bp~ 250 75;
#X obj 922 981 bp~ 500 100;
#X obj 1079 816 route 0 1 2 3 4 5;
#X obj 1209 1023 env~ 1024;
#X floatatom 1209 1111 5 0 0 0 - - -, f 5;
#X floatatom 1209 1192 5 0 0 0 - - -, f 5;
#X obj 1351 1023 env~ 1024;
#X floatatom 1351 1107 5 0 0 0 - - -, f 5;
#X floatatom 1351 1188 5 0 0 0 - - -, f 5;
#X obj 506 1063 dbtorms;
#X obj 922 1065 dbtorms;
#X obj 1062 1066 dbtorms;
#X obj 1209 1065 dbtorms;
#X obj 1351 1065 dbtorms;
#X obj 765 1066 dbtorms;
#X obj 765 1146 > 0.05;
#X obj 922 1146 > 0.05;
#X obj 1062 1147 > 0.05;
#X obj 1209 1150 > 0.05;
#X obj 1351 1145 > 0.05;
#X obj 633 1019 env~ 1024;
#X floatatom 633 1101 5 0 0 0 - - -, f 5;
#X floatatom 633 1182 5 0 0 0 - - -, f 5;
#X obj 633 1064 dbtorms;
#X obj 633 977 bp~ 125 50;
#X obj 633 1140 > 0.06;
#X obj 506 976 bp~ 63 25;
#X obj 1062 981 bp~ 1000 250;
#X obj 1209 981 bp~ 2000 500;
#X obj 1351 981 bp~ 4000 1000;
#X obj 506 1139 > 0.1;
#X obj 1541 986 unpackOSC;
#X obj 1542 1176 spigot;
#X obj 1581 1156 tgl 15 0 empty empty enable_print: -77 8 0 10 -4034
-1 -1 0 1;
#X obj 1542 1201 print received;
#X obj 1541 938 udpreceive 9001;
#X floatatom 1668 1066 5 0 0 0 - - -, f 5;
#X obj 1668 1021 routeOSC /recordAudio;
#X obj 1740 1064 print recording;
#X msg 1098 605 send /jitter \$1;
#X msg 1292 469 connect localhost 12000;
#X floatatom 1423 550 5 0 0 0 - - -, f 5;
#X obj 1292 661 udpsend;
#X obj 1423 631 packOSC;
#X msg 1322 516 disconnect;
#X obj 1292 408 loadbang;
#X msg 1423 589 send /desaturate \$1;
#X msg 1613 462 connect localhost 12000;
#X floatatom 1744 543 5 0 0 0 - - -, f 5;
#X obj 1613 654 udpsend;
#X obj 1744 624 packOSC;
#X msg 1643 509 disconnect;
#X obj 1613 401 loadbang;
#X msg 1744 582 send /static \$1;
#X connect 0 0 17 0;
#X connect 0 0 30 1;
#X connect 0 0 89 0;
#X connect 1 0 0 0;
#X connect 2 0 1 0;
#X connect 3 0 20 0;
#X connect 4 0 12 0;
#X connect 5 0 6 0;
#X connect 5 0 72 0;
#X connect 5 0 97 0;
#X connect 5 0 98 0;
#X connect 5 0 121 0;
#X connect 5 0 123 0;
#X connect 5 0 124 0;
#X connect 5 0 125 0;
#X connect 5 0 126 0;
#X connect 6 0 10 0;
#X connect 7 0 9 0;
#X connect 8 0 6 1;
#X connect 9 0 8 0;
#X connect 10 0 11 0;
#X connect 10 0 11 1;
#X connect 12 0 3 0;
#X connect 13 0 18 0;
#X connect 14 0 13 0;
#X connect 14 0 20 1;
#X connect 14 0 44 0;
#X connect 15 0 14 1;
#X connect 15 0 19 1;
#X connect 15 1 16 0;
#X connect 16 0 14 0;
#X connect 17 0 18 1;
#X connect 18 0 4 0;
#X connect 19 0 30 0;
#X connect 19 0 46 0;
#X connect 20 0 19 0;
#X connect 21 0 16 0;
#X connect 22 0 15 0;
#X connect 22 0 45 0;
#X connect 24 0 2 0;
#X connect 25 0 52 0;
#X connect 26 0 7 0;
#X connect 29 0 4 0;
#X connect 29 1 12 1;
#X connect 30 0 5 0;
#X connect 31 0 33 0;
#X connect 32 0 37 0;
#X connect 34 0 33 0;
#X connect 35 0 33 0;
#X connect 36 0 31 0;
#X connect 37 0 34 0;
#X connect 38 0 40 0;
#X connect 39 0 136 0;
#X connect 41 0 40 0;
#X connect 42 0 40 0;
#X connect 43 0 38 0;
#X connect 46 0 23 0;
#X connect 48 0 47 0;
#X connect 49 0 51 0;
#X connect 49 0 55 0;
#X connect 51 0 57 1;
#X connect 51 0 62 0;
#X connect 52 0 50 0;
#X connect 52 0 29 0;
#X connect 54 0 58 1;
#X connect 54 0 63 0;
#X connect 55 0 54 0;
#X connect 56 0 52 1;
#X connect 56 0 59 0;
#X connect 57 0 56 0;
#X connect 58 0 56 0;
#X connect 59 0 52 0;
#X connect 62 0 57 0;
#X connect 63 0 58 0;
#X connect 64 0 47 0;
#X connect 65 0 73 0;
#X connect 67 0 71 0;
#X connect 67 1 70 0;
#X connect 68 0 78 0;
#X connect 70 0 68 0;
#X connect 70 1 69 0;
#X connect 71 0 65 0;
#X connect 71 1 66 0;
#X connect 72 0 67 0;
#X connect 73 0 74 0;
#X connect 74 0 32 0;
#X connect 76 0 106 0;
#X connect 77 0 127 0;
#X connect 78 0 75 0;
#X connect 79 0 39 0;
#X connect 80 0 111 0;
#X connect 81 0 112 0;
#X connect 83 0 107 0;
#X connect 84 0 113 0;
#X connect 85 0 138 0;
#X connect 86 0 108 0;
#X connect 87 0 114 0;
#X connect 88 0 145 0;
#X connect 89 0 90 0;
#X connect 90 0 99 0;
#X connect 97 0 80 0;
#X connect 98 0 83 0;
#X connect 99 0 91 0;
#X connect 99 1 92 0;
#X connect 99 2 93 0;
#X connect 99 3 94 0;
#X connect 99 4 95 0;
#X connect 99 5 96 0;
#X connect 100 0 109 0;
#X connect 101 0 115 0;
#X connect 103 0 110 0;
#X connect 104 0 116 0;
#X connect 106 0 77 0;
#X connect 107 0 84 0;
#X connect 108 0 87 0;
#X connect 109 0 101 0;
#X connect 110 0 104 0;
#X connect 111 0 81 0;
#X connect 112 0 82 0;
#X connect 113 0 85 0;
#X connect 114 0 88 0;
#X connect 115 0 102 0;
#X connect 116 0 105 0;
#X connect 117 0 120 0;
#X connect 118 0 122 0;
#X connect 120 0 118 0;
#X connect 121 0 117 0;
#X connect 122 0 119 0;
#X connect 123 0 76 0;
#X connect 124 0 86 0;
#X connect 125 0 100 0;
#X connect 126 0 103 0;
#X connect 127 0 79 0;
#X connect 128 0 129 0;
#X connect 128 0 134 0;
#X connect 129 0 131 0;
#X connect 130 0 129 1;
#X connect 132 0 128 0;
#X connect 134 0 133 0;
#X connect 134 0 135 0;
#X connect 136 0 41 0;
#X connect 137 0 139 0;
#X connect 138 0 143 0;
#X connect 140 0 139 0;
#X connect 141 0 139 0;
#X connect 142 0 137 0;
#X connect 143 0 140 0;
#X connect 144 0 146 0;
#X connect 145 0 150 0;
#X connect 147 0 146 0;
#X connect 148 0 146 0;
#X connect 149 0 144 0;
#X connect 150 0 147 0;
#X restore 187 426 pd subpatch;
#X text 48 -7 first load sound file;
#X text 31 33 left limit;
#X text 145 100 right limit;
#X text 29 322 playback speed;
#X text 27 377 volume;
#X obj 208 342 tgl 15 0 reverse empty empty 17 7 0 10 -262144 -1 -1
0 1;
#X text 187 322 reverse;
#X text 65 -53 comment;
#X text 28 359 0 1 2;
#X obj 104 362 bng 15 250 50 0 reset empty empty 17 7 0 10 -262144
-1 -1;
